<svg xmlns="http://www.w3.org/2000/svg" width="175" height="165" fill="none"><g filter="url(#filter0_f_1_134)"><path d="M81.81 34.84c5.983 5.982 5.98 15.694 0 21.672L64.608 73.716a8.882 8.882 0 01-12.56 0L36.653 58.32l23.483-23.484c5.982-5.982 15.694-5.978 21.672 0l.004.004z" fill="url(#paint0_linear_1_134)"/></g><path d="M81.81 34.84c5.983 5.982 5.98 15.694 0 21.672L64.608 73.716a8.882 8.882 0 01-12.56 0L36.653 58.32l23.483-23.484c5.982-5.982 15.694-5.978 21.672 0l.004.004z" fill="url(#paint1_linear_1_134)"/><g filter="url(#filter1_b_1_134)"><path d="M34.84 34.84c5.982-5.981 15.694-5.978 21.672 0l23.484 23.484L64.599 73.72a8.882 8.882 0 01-12.56 0L34.837 56.517c-5.982-5.982-5.978-15.694 0-21.673l.004-.003z" fill="url(#paint2_linear_1_134)"/><path d="M35.547 35.548c5.591-5.591 14.67-5.588 20.258 0l22.776 22.776-14.689 14.69a7.882 7.882 0 01-11.145 0L35.543 55.81c-5.591-5.592-5.588-14.67 0-20.259l.004-.003z" stroke="url(#paint3_linear_1_134)" stroke-width="2"/></g><defs><linearGradient id="paint0_linear_1_134" x1="83.882" y1="34.471" x2="46.704" y2="68.692" gradientUnits="userSpaceOnUse"><stop stop-color="#F26DFF"/><stop offset="1" stop-color="#FF027A"/></linearGradient><linearGradient id="paint1_linear_1_134" x1="83.882" y1="34.471" x2="46.704" y2="68.692" gradientUnits="userSpaceOnUse"><stop stop-color="#F26DFF"/><stop offset="1" stop-color="#FF027A"/></linearGradient><linearGradient id="paint2_linear_1_134" x1="57.606" y1="76.839" x2="67.733" y2="31.985" gradientUnits="userSpaceOnUse"><stop stop-color="#fff" stop-opacity=".2"/><stop offset="1" stop-color="#fff" stop-opacity=".49"/></linearGradient><linearGradient id="paint3_linear_1_134" x1="28.229" y1="46.85" x2="72.911" y2="38.19" gradientUnits="userSpaceOnUse"><stop stop-color="#fff"/><stop offset="1" stop-color="#fff" stop-opacity="0"/></linearGradient><filter id="filter0_f_1_134" x="-51.349" y="-57.649" width="225.644" height="221.965" filterUnits="userSpaceOnUse" color-interpolation-filters="sRGB"><feFlood flood-opacity="0" result="BackgroundImageFix"/><feBlend in="SourceGraphic" in2="BackgroundImageFix" result="shape"/><feGaussianBlur stdDeviation="44" result="effect1_foregroundBlur_1_134"/></filter><filter id="filter1_b_1_134" x="12.351" y="12.356" width="85.644" height="81.965" filterUnits="userSpaceOnUse" color-interpolation-filters="sRGB"><feFlood flood-opacity="0" result="BackgroundImageFix"/><feGaussianBlur in="BackgroundImageFix" stdDeviation="9"/><feComposite in2="SourceAlpha" operator="in" result="effect1_backgroundBlur_1_134"/><feBlend in="SourceGraphic" in2="effect1_backgroundBlur_1_134" result="shape"/></filter></defs></svg>