<svg xmlns="http://www.w3.org/2000/svg" width="186" height="168" fill="none"><g filter="url(#filter0_f_1_144)"><path d="M97.35 76.324c-1.714-8.838-9.493-15.509-18.836-15.509-9.342 0-17.122 6.67-18.835 15.509C59.308 78.23 60.816 80 62.756 80h31.51c1.947 0 3.45-1.763 3.078-3.676h.006z" fill="url(#paint0_linear_1_144)"/><path d="M78.514 56.307a9.526 9.526 0 100-19.051 9.526 9.526 0 100 19.051z" fill="url(#paint1_linear_1_144)"/></g><path d="M97.35 76.324c-1.714-8.838-9.493-15.509-18.836-15.509-9.342 0-17.122 6.67-18.835 15.509C59.308 78.23 60.816 80 62.756 80h31.51c1.947 0 3.45-1.763 3.078-3.676h.006z" fill="url(#paint2_linear_1_144)"/><path d="M78.514 56.307a9.526 9.526 0 100-19.051 9.526 9.526 0 000 19.051z" fill="url(#paint3_linear_1_144)"/><g filter="url(#filter1_b_1_144)"><path d="M71.3 75.392c-2.15-11.078-11.904-19.445-23.614-19.445s-21.463 8.367-23.615 19.445c-.466 2.396 1.42 4.608 3.86 4.608h39.505c2.44 0 4.325-2.212 3.86-4.608h.005z" fill="url(#paint4_linear_1_144)"/><path d="M47.686 56.947c11.047 0 20.28 7.77 22.531 18.141l.097.495C70.655 77.34 69.269 79 67.436 79H27.93c-1.833 0-3.219-1.66-2.877-3.417h0c2.062-10.617 11.41-18.636 22.633-18.636z" stroke="url(#paint5_linear_1_144)" stroke-width="2"/></g><g filter="url(#filter2_b_1_144)"><path d="M50.42 49.98c6.417-1.515 10.391-7.945 8.877-14.362-1.515-6.416-7.944-10.39-14.361-8.876-6.417 1.515-10.39 7.944-8.876 14.36 1.514 6.418 7.944 10.392 14.36 8.877z" fill="url(#paint6_linear_1_144)"/><path d="M58.324 35.848c1.387 5.88-2.254 11.77-8.133 13.158-5.88 1.388-11.77-2.254-13.158-8.133s2.253-11.77 8.133-13.158c5.879-1.387 11.77 2.254 13.158 8.133z" stroke="url(#paint7_linear_1_144)" stroke-width="2"/></g><defs><linearGradient id="paint0_linear_1_144" x1="78.514" y1="90.557" x2="78.514" y2="32.875" gradientUnits="userSpaceOnUse"><stop stop-color="#F6005A"/><stop offset="1" stop-color="#F7CBAD"/></linearGradient><linearGradient id="paint1_linear_1_144" x1="78.514" y1="-212.948" x2="78.514" y2="32.876" gradientUnits="userSpaceOnUse"><stop stop-color="#F6005A"/><stop offset="1" stop-color="#F7CBAD"/></linearGradient><linearGradient id="paint2_linear_1_144" x1="78.514" y1="90.557" x2="78.514" y2="32.876" gradientUnits="userSpaceOnUse"><stop stop-color="#F6005A"/><stop offset="1" stop-color="#F7CBAD"/></linearGradient><linearGradient id="paint3_linear_1_144" x1="78.514" y1="-212.948" x2="78.514" y2="32.876" gradientUnits="userSpaceOnUse"><stop stop-color="#F6005A"/><stop offset="1" stop-color="#F7CBAD"/></linearGradient><linearGradient id="paint4_linear_1_144" x1="26.674" y1="78.642" x2="43.902" y2="44.716" gradientUnits="userSpaceOnUse"><stop stop-color="#fff" stop-opacity=".2"/><stop offset="1" stop-color="#fff" stop-opacity=".49"/></linearGradient><linearGradient id="paint5_linear_1_144" x1="27.344" y1="57.839" x2="42.962" y2="90.724" gradientUnits="userSpaceOnUse"><stop stop-color="#fff"/><stop offset="1" stop-color="#fff" stop-opacity="0"/></linearGradient><linearGradient id="paint6_linear_1_144" x1="39.804" y1="51.1" x2="55.552" y2="25.621" gradientUnits="userSpaceOnUse"><stop stop-color="#fff" stop-opacity=".2"/><stop offset="1" stop-color="#fff" stop-opacity=".49"/></linearGradient><linearGradient id="paint7_linear_1_144" x1="35.389" y1="30.925" x2="59.715" y2="47.109" gradientUnits="userSpaceOnUse"><stop stop-color="#fff"/><stop offset="1" stop-color="#fff" stop-opacity="0"/></linearGradient><filter id="filter0_f_1_144" x="-28.377" y="-50.744" width="213.778" height="218.744" filterUnits="userSpaceOnUse" color-interpolation-filters="sRGB"><feFlood flood-opacity="0" result="BackgroundImageFix"/><feBlend in="SourceGraphic" in2="BackgroundImageFix" result="shape"/><feGaussianBlur stdDeviation="44" result="effect1_foregroundBlur_1_144"/></filter><filter id="filter1_b_1_144" x="6" y="37.947" width="83.366" height="60.053" filterUnits="userSpaceOnUse" color-interpolation-filters="sRGB"><feFlood flood-opacity="0" result="BackgroundImageFix"/><feGaussianBlur in="BackgroundImageFix" stdDeviation="9"/><feComposite in2="SourceAlpha" operator="in" result="effect1_backgroundBlur_1_144"/><feBlend in="SourceGraphic" in2="effect1_backgroundBlur_1_144" result="shape"/></filter><filter id="filter2_b_1_144" x="17.738" y="8.42" width="59.881" height="59.881" filterUnits="userSpaceOnUse" color-interpolation-filters="sRGB"><feFlood flood-opacity="0" result="BackgroundImageFix"/><feGaussianBlur in="BackgroundImageFix" stdDeviation="9"/><feComposite in2="SourceAlpha" operator="in" result="effect1_backgroundBlur_1_144"/><feBlend in="SourceGraphic" in2="effect1_backgroundBlur_1_144" result="shape"/></filter></defs></svg>