<svg xmlns="http://www.w3.org/2000/svg" width="173" height="168" fill="none"><g filter="url(#filter0_f_1_160)"><path d="M67.095 43.078c9.723.313 17.573 8.322 17.67 18.013a18.097 18.097 0 01-2.683 9.677c-.245.397-.291.88-.143 1.318l1.698 5.07c.582 1.746-1.157 3.372-2.868 2.681l-5.242-2.12a1.572 1.572 0 00-1.258.023 18.19 18.19 0 01-7.688 1.729c-9.848.046-18.06-7.848-18.346-17.654-.31-10.502 8.317-19.078 18.864-18.742l-.004.005z" fill="url(#paint0_linear_1_160)"/></g><path d="M67.095 43.078c9.723.313 17.573 8.322 17.67 18.013a18.097 18.097 0 01-2.683 9.677c-.245.397-.291.88-.143 1.318l1.698 5.07c.582 1.746-1.157 3.372-2.868 2.681l-5.242-2.12a1.572 1.572 0 00-1.258.023 18.19 18.19 0 01-7.688 1.729c-9.848.046-18.06-7.848-18.346-17.654-.31-10.502 8.317-19.078 18.864-18.742l-.004.005z" fill="url(#paint1_linear_1_160)"/><g filter="url(#filter1_b_1_160)"><path d="M46.851 24.013c-12.576.404-22.726 10.826-22.85 23.437a23.572 23.572 0 003.469 12.588c.317.515.376 1.145.188 1.72l-2.193 6.6c-.757 2.272 1.491 4.387 3.707 3.486l6.782-2.755a2.028 2.028 0 011.629.032 23.437 23.437 0 009.943 2.25c12.737.055 23.354-10.21 23.726-22.973.4-13.67-10.755-24.827-24.396-24.385h-.005z" fill="url(#paint2_linear_1_160)"/><path d="M25.001 47.46h0a22.571 22.571 0 003.322 12.056l-.853.522c.317.515.376 1.145.188 1.72L25.001 47.46zm0 0c.119-12.073 9.836-22.052 21.866-22.447M25.001 47.46l-1-.01c.124-12.61 10.274-23.033 22.85-23.437v1h.016m0 0h.021c13.062-.424 23.747 10.26 23.364 23.355h0C69.897 60.59 59.724 70.423 47.53 70.37h0a22.437 22.437 0 01-9.519-2.152l8.856-43.205z" stroke="url(#paint3_linear_1_160)" stroke-width="2"/></g><defs><linearGradient id="paint0_linear_1_160" x1="62.645" y1="44.313" x2="70.809" y2="80.574" gradientUnits="userSpaceOnUse"><stop stop-color="#0BC7FF"/><stop offset="1" stop-color="#DB0EFE"/></linearGradient><linearGradient id="paint1_linear_1_160" x1="62.645" y1="44.313" x2="70.809" y2="80.574" gradientUnits="userSpaceOnUse"><stop stop-color="#0BC7FF"/><stop offset="1" stop-color="#DB0EFE"/></linearGradient><linearGradient id="paint2_linear_1_160" x1="26.668" y1="69.344" x2="69.293" y2="27.424" gradientUnits="userSpaceOnUse"><stop stop-color="#fff" stop-opacity=".2"/><stop offset="1" stop-color="#fff" stop-opacity=".49"/></linearGradient><linearGradient id="paint3_linear_1_160" x1="27.336" y1="27.78" x2="67.546" y2="70.063" gradientUnits="userSpaceOnUse"><stop stop-color="#fff"/><stop offset="1" stop-color="#fff" stop-opacity="0"/></linearGradient><filter id="filter0_f_1_160" x="-39.773" y="-44.936" width="212.539" height="212.936" filterUnits="userSpaceOnUse" color-interpolation-filters="sRGB"><feFlood flood-opacity="0" result="BackgroundImageFix"/><feBlend in="SourceGraphic" in2="BackgroundImageFix" result="shape"/><feGaussianBlur stdDeviation="44" result="effect1_foregroundBlur_1_160"/></filter><filter id="filter1_b_1_160" x="6" y="6" width="83.262" height="84.057" filterUnits="userSpaceOnUse" color-interpolation-filters="sRGB"><feFlood flood-opacity="0" result="BackgroundImageFix"/><feGaussianBlur in="BackgroundImageFix" stdDeviation="9"/><feComposite in2="SourceAlpha" operator="in" result="effect1_backgroundBlur_1_160"/><feBlend in="SourceGraphic" in2="effect1_backgroundBlur_1_160" result="shape"/></filter></defs></svg>